<svg id="my-svg" width="100%" xmlns="http://www.w3.org/2000/svg" xmlns:xlink="http://www.w3.org/1999/xlink" viewBox="0 0 683.96875 450" style="max-width: 683.969px; background-color: white;" role="graphics-document document" aria-roledescription="pie"><style>#my-svg{font-family:"trebuchet ms",verdana,arial,sans-serif;font-size:16px;fill:#ccc;}@keyframes edge-animation-frame{from{stroke-dashoffset:0;}}@keyframes dash{to{stroke-dashoffset:0;}}#my-svg .edge-animation-slow{stroke-dasharray:9,5!important;stroke-dashoffset:900;animation:dash 50s linear infinite;stroke-linecap:round;}#my-svg .edge-animation-fast{stroke-dasharray:9,5!important;stroke-dashoffset:900;animation:dash 20s linear infinite;stroke-linecap:round;}#my-svg .error-icon{fill:#a44141;}#my-svg .error-text{fill:#ddd;stroke:#ddd;}#my-svg .edge-thickness-normal{stroke-width:1px;}#my-svg .edge-thickness-thick{stroke-width:3.5px;}#my-svg .edge-pattern-solid{stroke-dasharray:0;}#my-svg .edge-thickness-invisible{stroke-width:0;fill:none;}#my-svg .edge-pattern-dashed{stroke-dasharray:3;}#my-svg .edge-pattern-dotted{stroke-dasharray:2;}#my-svg .marker{fill:#6b7280;stroke:#6b7280;}#my-svg .marker.cross{stroke:#6b7280;}#my-svg svg{font-family:"trebuchet ms",verdana,arial,sans-serif;font-size:16px;}#my-svg p{margin:0;}#my-svg .pieCircle{stroke:black;stroke-width:2px;opacity:0.7;}#my-svg .pieOuterCircle{stroke:black;stroke-width:2px;fill:none;}#my-svg .pieTitleText{text-anchor:middle;font-size:25px;fill:hsl(28.5714285714, 17.3553719008%, 86.2745098039%);font-family:"trebuchet ms",verdana,arial,sans-serif;}#my-svg .slice{font-family:"trebuchet ms",verdana,arial,sans-serif;fill:#ccc;font-size:17px;}#my-svg .legend text{fill:hsl(28.5714285714, 17.3553719008%, 86.2745098039%);font-family:"trebuchet ms",verdana,arial,sans-serif;font-size:17px;}#my-svg :root{--mermaid-font-family:"trebuchet ms",verdana,arial,sans-serif;}</style><g/><g transform="translate(225,225)"><circle cx="0" cy="0" r="186" class="pieOuterCircle"/><path d="M0,-185A185,185,0,0,1,181.723,34.666L0,0Z" fill="#e74c3c" class="pieCircle"/><path d="M181.723,34.666A185,185,0,0,1,23.187,183.541L0,0Z" fill="#3498db" class="pieCircle"/><path d="M23.187,183.541A185,185,0,0,1,-142.545,117.923L0,0Z" fill="#2ecc71" class="pieCircle"/><path d="M-142.545,117.923A185,185,0,0,1,-175.945,-57.168L0,0Z" fill="#f39c12" class="pieCircle"/><path d="M-175.945,-57.168A185,185,0,0,1,-89.124,-162.117L0,0Z" fill="#9b59b6" class="pieCircle"/><path d="M-89.124,-162.117A185,185,0,0,1,0,-185L0,0Z" fill="#1abc9c" class="pieCircle"/><text transform="translate(106.90871243514077,-88.44257857763068)" class="slice" style="text-anchor: middle;">28%</text><text transform="translate(94.98091094760554,101.14439705472087)" class="slice" style="text-anchor: middle;">20%</text><text transform="translate(-51.07728168499912,129.00648741699487)" class="slice" style="text-anchor: middle;">16%</text><text transform="translate(-136.29235603860556,25.999157398769285)" class="slice" style="text-anchor: middle;">16%</text><text transform="translate(-106.9087124351408,-88.44257857763064)" class="slice" style="text-anchor: middle;">12%</text><text transform="translate(-34.50572184412367,-134.39091360659754)" class="slice" style="text-anchor: middle;">8%</text><text x="0" y="-200" class="pieTitleText">Technical Focus</text><g class="legend" transform="translate(216,-66)"><rect width="18" height="18" style="fill: rgb(231, 76, 60); stroke: rgb(231, 76, 60);"/><text x="22" y="14">Security Research [28]</text></g><g class="legend" transform="translate(216,-44)"><rect width="18" height="18" style="fill: rgb(52, 152, 219); stroke: rgb(52, 152, 219);"/><text x="22" y="14">Systems (Rust/C) [20]</text></g><g class="legend" transform="translate(216,-22)"><rect width="18" height="18" style="fill: rgb(46, 204, 113); stroke: rgb(46, 204, 113);"/><text x="22" y="14">Web/Full-Stack [16]</text></g><g class="legend" transform="translate(216,0)"><rect width="18" height="18" style="fill: rgb(243, 156, 18); stroke: rgb(243, 156, 18);"/><text x="22" y="14">AI/ML [16]</text></g><g class="legend" transform="translate(216,22)"><rect width="18" height="18" style="fill: rgb(155, 89, 182); stroke: rgb(155, 89, 182);"/><text x="22" y="14">Linux/DevOps [12]</text></g><g class="legend" transform="translate(216,44)"><rect width="18" height="18" style="fill: rgb(26, 188, 156); stroke: rgb(26, 188, 156);"/><text x="22" y="14">Privacy/Crypto [8]</text></g></g></svg>