<svg id="my-svg" width="100%" xmlns="http://www.w3.org/2000/svg" xmlns:xlink="http://www.w3.org/1999/xlink" viewBox="0 0 678.265625 450" style="max-width: 678.266px; background-color: transparent;" role="graphics-document document" aria-roledescription="pie"><style>#my-svg{font-family:"trebuchet ms",verdana,arial,sans-serif;font-size:16px;fill:#333;}@keyframes edge-animation-frame{from{stroke-dashoffset:0;}}@keyframes dash{to{stroke-dashoffset:0;}}#my-svg .edge-animation-slow{stroke-dasharray:9,5!important;stroke-dashoffset:900;animation:dash 50s linear infinite;stroke-linecap:round;}#my-svg .edge-animation-fast{stroke-dasharray:9,5!important;stroke-dashoffset:900;animation:dash 20s linear infinite;stroke-linecap:round;}#my-svg .error-icon{fill:#552222;}#my-svg .error-text{fill:#552222;stroke:#552222;}#my-svg .edge-thickness-normal{stroke-width:1px;}#my-svg .edge-thickness-thick{stroke-width:3.5px;}#my-svg .edge-pattern-solid{stroke-dasharray:0;}#my-svg .edge-thickness-invisible{stroke-width:0;fill:none;}#my-svg .edge-pattern-dashed{stroke-dasharray:3;}#my-svg .edge-pattern-dotted{stroke-dasharray:2;}#my-svg .marker{fill:#333333;stroke:#333333;}#my-svg .marker.cross{stroke:#333333;}#my-svg svg{font-family:"trebuchet ms",verdana,arial,sans-serif;font-size:16px;}#my-svg p{margin:0;}#my-svg .pieCircle{stroke:black;stroke-width:2px;opacity:0.7;}#my-svg .pieOuterCircle{stroke:black;stroke-width:2px;fill:none;}#my-svg .pieTitleText{text-anchor:middle;font-size:25px;fill:black;font-family:"trebuchet ms",verdana,arial,sans-serif;}#my-svg .slice{font-family:"trebuchet ms",verdana,arial,sans-serif;fill:#333;font-size:17px;}#my-svg .legend text{fill:black;font-family:"trebuchet ms",verdana,arial,sans-serif;font-size:17px;}#my-svg :root{--mermaid-font-family:"trebuchet ms",verdana,arial,sans-serif;}</style><g/><g transform="translate(225,225)"><circle cx="0" cy="0" r="186" class="pieOuterCircle"/><path d="M0,-185A185,185,0,0,1,184.635,-11.616L0,0Z" fill="#e74c3c" class="pieCircle"/><path d="M184.635,-11.616A185,185,0,0,1,68.103,172.009L0,0Z" fill="#3498db" class="pieCircle"/><path d="M68.103,172.009A185,185,0,0,1,-142.545,117.923L0,0Z" fill="#2ecc71" class="pieCircle"/><path d="M-142.545,117.923A185,185,0,0,1,-184.635,-11.616L0,0Z" fill="#f39c12" class="pieCircle"/><path d="M-184.635,-11.616A185,185,0,0,1,-126.641,-134.859L0,0Z" fill="#9b59b6" class="pieCircle"/><path d="M-126.641,-134.859A185,185,0,0,1,-46.008,-179.188L0,0Z" fill="#1abc9c" class="pieCircle"/><path d="M-46.008,-179.188A185,185,0,0,1,0,-185L0,0Z" fill="#e91e63" class="pieCircle"/><text transform="translate(94.98091094760557,-101.14439705472084)" class="slice" style="text-anchor: middle;">24%</text><text transform="translate(117.15049966340456,74.34596780333581)" class="slice" style="text-anchor: middle;">20%</text><text transform="translate(-34.50572184412364,134.39091360659756)" class="slice" style="text-anchor: middle;">20%</text><text transform="translate(-131.95909163595255,42.876107969523964)" class="slice" style="text-anchor: middle;">12%</text><text transform="translate(-125.54475352966016,-59.07687670465395)" class="slice" style="text-anchor: middle;">12%</text><text transform="translate(-66.84332228161288,-121.58755185608614)" class="slice" style="text-anchor: middle;">8%</text><text transform="translate(-17.389986157047144,-137.6559148073838)" class="slice" style="text-anchor: middle;">4%</text><text x="0" y="-200" class="pieTitleText">Technical Focus</text><g class="legend" transform="translate(216,-77)"><rect width="18" height="18" style="fill: rgb(52, 152, 219); stroke: rgb(52, 152, 219);"/><text x="22" y="14">Systems (Rust/C) [20]</text></g><g class="legend" transform="translate(216,-55)"><rect width="18" height="18" style="fill: rgb(231, 76, 60); stroke: rgb(231, 76, 60);"/><text x="22" y="14">Security [24]</text></g><g class="legend" transform="translate(216,-33)"><rect width="18" height="18" style="fill: rgb(243, 156, 18); stroke: rgb(243, 156, 18);"/><text x="22" y="14">Web (TS/React) [12]</text></g><g class="legend" transform="translate(216,-11)"><rect width="18" height="18" style="fill: rgb(46, 204, 113); stroke: rgb(46, 204, 113);"/><text x="22" y="14">Linux/DevOps [20]</text></g><g class="legend" transform="translate(216,11)"><rect width="18" height="18" style="fill: rgb(155, 89, 182); stroke: rgb(155, 89, 182);"/><text x="22" y="14">AI/ML [12]</text></g><g class="legend" transform="translate(216,33)"><rect width="18" height="18" style="fill: rgb(233, 30, 99); stroke: rgb(233, 30, 99);"/><text x="22" y="14">Math [4]</text></g><g class="legend" transform="translate(216,55)"><rect width="18" height="18" style="fill: rgb(26, 188, 156); stroke: rgb(26, 188, 156);"/><text x="22" y="14">Privacy [8]</text></g></g></svg>