<svg id="my-svg" width="100%" xmlns="http://www.w3.org/2000/svg" xmlns:xlink="http://www.w3.org/1999/xlink" viewBox="0 0 696.921875 450" style="max-width: 696.922px; background-color: white;" role="graphics-document document" aria-roledescription="pie"><style>#my-svg{font-family:"trebuchet ms",verdana,arial,sans-serif;font-size:16px;fill:#333;}@keyframes edge-animation-frame{from{stroke-dashoffset:0;}}@keyframes dash{to{stroke-dashoffset:0;}}#my-svg .edge-animation-slow{stroke-dasharray:9,5!important;stroke-dashoffset:900;animation:dash 50s linear infinite;stroke-linecap:round;}#my-svg .edge-animation-fast{stroke-dasharray:9,5!important;stroke-dashoffset:900;animation:dash 20s linear infinite;stroke-linecap:round;}#my-svg .error-icon{fill:#552222;}#my-svg .error-text{fill:#552222;stroke:#552222;}#my-svg .edge-thickness-normal{stroke-width:1px;}#my-svg .edge-thickness-thick{stroke-width:3.5px;}#my-svg .edge-pattern-solid{stroke-dasharray:0;}#my-svg .edge-thickness-invisible{stroke-width:0;fill:none;}#my-svg .edge-pattern-dashed{stroke-dasharray:3;}#my-svg .edge-pattern-dotted{stroke-dasharray:2;}#my-svg .marker{fill:#9ca3af;stroke:#9ca3af;}#my-svg .marker.cross{stroke:#9ca3af;}#my-svg svg{font-family:"trebuchet ms",verdana,arial,sans-serif;font-size:16px;}#my-svg p{margin:0;}#my-svg .pieCircle{stroke:black;stroke-width:2px;opacity:0.7;}#my-svg .pieOuterCircle{stroke:black;stroke-width:2px;fill:none;}#my-svg .pieTitleText{text-anchor:middle;font-size:25px;fill:black;font-family:"trebuchet ms",verdana,arial,sans-serif;}#my-svg .slice{font-family:"trebuchet ms",verdana,arial,sans-serif;fill:#333;font-size:17px;}#my-svg .legend text{fill:black;font-family:"trebuchet ms",verdana,arial,sans-serif;font-size:17px;}#my-svg :root{--mermaid-font-family:"trebuchet ms",verdana,arial,sans-serif;}</style><g/><g transform="translate(225,225)"><circle cx="0" cy="0" r="186" class="pieOuterCircle"/><path d="M0,-185A185,185,0,0,1,175.945,57.168L0,0Z" fill="#3498db" class="pieCircle"/><path d="M175.945,57.168A185,185,0,0,1,-23.187,183.541L0,0Z" fill="#e74c3c" class="pieCircle"/><path d="M-23.187,183.541A185,185,0,0,1,-181.723,34.666L0,0Z" fill="#f39c12" class="pieCircle"/><path d="M-181.723,34.666A185,185,0,0,1,-142.545,-117.923L0,0Z" fill="#2ecc71" class="pieCircle"/><path d="M-142.545,-117.923A185,185,0,0,1,-46.008,-179.188L0,0Z" fill="#9b59b6" class="pieCircle"/><path d="M-46.008,-179.188A185,185,0,0,1,0,-185L0,0Z" fill="#1abc9c" class="pieCircle"/><text transform="translate(112.25110796952396,-81.55520375558064)" class="slice" style="text-anchor: middle;">30%</text><text transform="translate(74.34596780333577,117.15049966340459)" class="slice" style="text-anchor: middle;">22%</text><text transform="translate(-94.98091094760557,101.14439705472084)" class="slice" style="text-anchor: middle;">20%</text><text transform="translate(-134.39091360659756,-34.505721844123634)" class="slice" style="text-anchor: middle;">14%</text><text transform="translate(-74.34596780333574,-117.15049966340462)" class="slice" style="text-anchor: middle;">10%</text><text transform="translate(-17.389986157047144,-137.6559148073838)" class="slice" style="text-anchor: middle;">4%</text><text x="0" y="-200" class="pieTitleText">Technical Focus</text><g class="legend" transform="translate(216,-66)"><rect width="18" height="18" style="fill: rgb(52, 152, 219); stroke: rgb(52, 152, 219);"/><text x="22" y="14">AI/ML/Agent Tooling [30]</text></g><g class="legend" transform="translate(216,-44)"><rect width="18" height="18" style="fill: rgb(231, 76, 60); stroke: rgb(231, 76, 60);"/><text x="22" y="14">Security Research [22]</text></g><g class="legend" transform="translate(216,-22)"><rect width="18" height="18" style="fill: rgb(243, 156, 18); stroke: rgb(243, 156, 18);"/><text x="22" y="14">Systems (Rust/C) [20]</text></g><g class="legend" transform="translate(216,0)"><rect width="18" height="18" style="fill: rgb(46, 204, 113); stroke: rgb(46, 204, 113);"/><text x="22" y="14">Web/Full-Stack [14]</text></g><g class="legend" transform="translate(216,22)"><rect width="18" height="18" style="fill: rgb(155, 89, 182); stroke: rgb(155, 89, 182);"/><text x="22" y="14">Linux/DevOps [10]</text></g><g class="legend" transform="translate(216,44)"><rect width="18" height="18" style="fill: rgb(26, 188, 156); stroke: rgb(26, 188, 156);"/><text x="22" y="14">Privacy/Crypto [4]</text></g></g></svg>